<svg width="17" height="20" viewBox="0 0 17 20" fill="none" xmlns="http://www.w3.org/2000/svg">
<g id="calendar">
<path id="Icone-Depart" fill-rule="evenodd" clip-rule="evenodd" d="M3.99731 4.01138V0H4.99707V4.01138H3.99731ZM14.0068 4.97678L14.0103 3.01105L16.9954 3.01385L16.9988 20H0.000244141L0.0012207 16.0002L0.998047 15.9945L1.01147 19.0092L15.9993 19.0067L16.0081 6.93909L1.00854 6.96326V15.9719L0 15.9857L0.00146484 3.01385L2.9707 3.01508L2.97681 4.97183L6.00049 4.97031L6.00684 3.00375L10.9993 3.01587V4.97678H14.0068ZM11.9944 0V4.01138H12.9941V0H11.9944ZM13.9988 15H10.9988V17H13.9988V15ZM6.99878 15H9.99878V17H6.99878V15ZM5.99878 15H2.99878V17H5.99878V15ZM10.9988 12H13.9988V14H10.9988V12ZM9.99878 12H6.99878V14H9.99878V12ZM2.99878 12H5.99878V14H2.99878V12ZM13.9988 9H10.9988V11H13.9988V9ZM6.99878 9H9.99878V11H6.99878V9ZM5.99878 9H2.99878V11H5.99878V9Z" transform="translate(0.0012207)" fill="#1BA6D2"/>
</g>
</svg>
