<svg width="56" height="56" viewBox="0 0 56 56" fill="none" xmlns="http://www.w3.org/2000/svg">
<g filter="url(#filter0_d)">
<path fill-rule="evenodd" clip-rule="evenodd" d="M0 24C0 10.7452 10.7452 0 24 0C37.2548 0 48 10.7452 48 24C48 37.2548 37.2548 48 24 48C10.7452 48 0 37.2548 0 24Z" transform="translate(4 2)" fill="white"/>
</g>
<path fill-rule="evenodd" clip-rule="evenodd" d="M11 0L0 5.2381V6.28571C0 6.86816 0.488281 7.33331 1.09131 7.33331H20.9087C21.4995 7.33331 22 6.86401 22 6.28571V5.2381L11 0ZM5.5 10.4762V15.7143C6.10815 15.7195 6.59985 16.1826 6.59985 16.762C6.59985 17.3402 6.11377 17.8096 5.48901 17.8096H3.31104C2.69727 17.8096 2.19995 17.3444 2.19995 16.762C2.19995 16.1857 2.68164 15.7195 3.30005 15.7143V10.4762C2.69165 10.471 2.19995 10.0079 2.19995 9.42859C2.19995 8.85034 2.68604 8.38098 3.31104 8.38098H5.48901C6.10278 8.38098 6.59985 8.84613 6.59985 9.42859C6.59985 10.0048 6.11816 10.471 5.5 10.4762ZM12.1001 15.7143V10.4762C12.7183 10.471 13.2 10.0048 13.2 9.42859C13.2 8.84613 12.7029 8.38098 12.0891 8.38098H9.91113C9.28613 8.38098 8.80005 8.85034 8.80005 9.42859C8.80005 10.0079 9.29175 10.471 9.90015 10.4762V15.7143C9.28174 15.7195 8.80005 16.1857 8.80005 16.762C8.80005 17.3444 9.29736 17.8096 9.91113 17.8096H12.0891C12.7126 17.8096 13.2 17.3402 13.2 16.762C13.2 16.1826 12.7083 15.7195 12.1001 15.7143ZM18.7 15.7143V10.4762C19.3181 10.471 19.7998 10.0048 19.7998 9.42859C19.7998 8.84613 19.3027 8.38098 18.689 8.38098H16.511C15.886 8.38098 15.3999 8.85034 15.3999 9.42859C15.3999 10.0079 15.8916 10.471 16.5 10.4762V15.7143C15.8816 15.7195 15.3999 16.1857 15.3999 16.762C15.3999 17.3444 15.8972 17.8096 16.511 17.8096H18.689C19.3125 17.8096 19.7998 17.3402 19.7998 16.762C19.7998 16.1826 19.3081 15.7195 18.7 15.7143ZM0 19.9047C0 19.3254 0.500488 18.8571 1.09131 18.8571H20.9087C21.5117 18.8571 22 19.3212 22 19.9047V20.9523C22 21.5317 21.4995 22 20.9087 22H1.09131C0.488281 22 0 21.5359 0 20.9523V19.9047Z" transform="translate(17 15)" fill="#A0B0B9"/>
<defs>
<filter id="filter0_d" x="0" y="0" width="56" height="56" filterUnits="userSpaceOnUse" color-interpolation-filters="sRGB">
<feFlood flood-opacity="0" result="BackgroundImageFix"/>
<feColorMatrix in="SourceAlpha" type="matrix" values="0 0 0 0 0 0 0 0 0 0 0 0 0 0 0 0 0 0 255 0"/>
<feOffset dy="2"/>
<feGaussianBlur stdDeviation="2"/>
<feColorMatrix type="matrix" values="0 0 0 0 0.290196 0 0 0 0 0.290196 0 0 0 0 0.290196 0 0 0 0.1 0"/>
<feBlend mode="normal" in2="BackgroundImageFix" result="effect1_dropShadow"/>
<feBlend mode="normal" in="SourceGraphic" in2="effect1_dropShadow" result="shape"/>
</filter>
</defs>
</svg>
