<svg width="30" height="29" viewBox="0 0 30 29" fill="none" xmlns="http://www.w3.org/2000/svg">
<path fill-rule="evenodd" clip-rule="evenodd" d="M29.999 20L30 24.252C30 27.174 28.11 29 24.58 29H4.916C1.89 29 0.001 27.174 0.001 24.252L0 20H0.933C3.136 20 4.995 18.445 4.995 16.418V12.582C4.995 10.555 3.136 9 0.933 9H0V4.748C0 1.826 1.89 0 4.915 0H24.58C27.606 0 30 1.826 30 4.748V9H29.067C26.865 9 25.007 10.555 25.007 12.582V16.152C25.007 18.179 26.866 20 29.067 20H30H29.999ZM22.989 12.563C22.989 8.918 19.852 6 16.029 6H13.972C10.149 6 7.01196 8.92 7.01196 12.563V19.353C7.01196 22.995 10.149 26 13.972 26H16.029C19.852 26 22.989 22.995 22.989 19.352V12.563Z" fill="white"/>
<path fill-rule="evenodd" clip-rule="evenodd" d="M8.146 18H5.849C2.683 18 0 15.405 0 12.365V5.55C0 2.508 2.682 0 5.85 0H8.145C11.312 0 13.995 2.508 13.995 5.55V12.365C13.997 15.405 11.313 18 8.145 18H8.146ZM11.952 5.43C11.952 3.49 10.184 2 7.98104 2H5.96304C3.76104 2 1.99304 3.49 1.99304 5.43V9.57C1.99304 11.51 3.76104 13 5.96304 13H7.98104C10.184 13 11.952 11.51 11.952 9.57V5.43Z" transform="translate(7.99695 7)" fill="white"/>
<path fill-rule="evenodd" clip-rule="evenodd" d="M3.52001 5H3.41001C1.38001 5 5.40123e-06 3.926 5.40123e-06 1.828V0.54C5.40123e-06 0.54 -0.00699461 0 0.483005 0C0.973005 0 0.973005 0.54 0.973005 0.54V1.828C0.973005 3.388 1.91801 4.023 3.41001 4.023H3.52001C3.52001 4.023 3.99901 4.046 3.99901 4.521C3.99701 4.995 3.51901 5 3.51901 5H3.52001Z" transform="translate(10.99 14)" fill="white"/>
</svg>
