<svg width="64" height="64" viewBox="0 0 64 64" fill="none" xmlns="http://www.w3.org/2000/svg">
<g id="Group">
<path id="backgroundColor" fill-rule="evenodd" clip-rule="evenodd" d="M0 32C0 14.3269 14.3269 0 32 0C49.6731 0 64 14.3269 64 32C64 49.6731 49.6731 64 32 64C14.3269 64 0 49.6731 0 32Z" fill="#E2F8FF"/>
<g id="2">
<path id="Shape" fill-rule="evenodd" clip-rule="evenodd" d="M0 12C0 18.627 5.37305 24 12 24C18.627 24 24 18.627 24 12C24 5.37299 18.627 0 12 0C5.37305 0 0 5.37299 0 12ZM22 12C22 17.523 17.5229 22 12 22C6.47705 22 2 17.523 2 12C2 6.47699 6.47705 2 12 2C17.5229 2 22 6.47699 22 12Z" transform="translate(20 20)" fill="#93E5FF"/>
<path id="Shape_2" fill-rule="evenodd" clip-rule="evenodd" d="M19.0222 0.787109C18.6711 -0.263855 18.1062 -0.260864 17.7561 0.787109L15.3892 7.8891H21.3892L19.0222 0.787109ZM19.0222 36.9911C18.6711 38.0421 18.1062 38.0391 17.7561 36.9911L15.3892 29.8891H21.3892L19.0222 36.9911ZM35.9912 18.7561C37.0391 19.1061 37.0422 19.6711 35.9912 20.0221L28.8892 22.3891V16.3891L35.9912 18.7561ZM0.787109 20.0221C-0.263916 19.6711 -0.260986 19.1061 0.787109 18.7561L7.88916 16.3891V22.3891L0.787109 20.0221Z" transform="translate(13.6108 13.1109)" fill="#93E5FF"/>
<path id="Shape_3" fill-rule="evenodd" clip-rule="evenodd" d="M27.9043 0.946472C28.4773 0.0164795 28.1895 -0.282532 27.2524 0.294434L10.5645 10.5635L0.294434 27.2524C-0.278564 28.1824 0.00927734 28.4814 0.946289 27.9055L17.6343 17.6354L27.9043 0.946472ZM14.6177 16.0316C13.9275 16.2167 13.1909 16.0197 12.6853 15.5145C11.9038 14.7335 11.9033 13.4669 12.6843 12.6855C13.4653 11.904 14.7317 11.9036 15.5132 12.6844C16.0188 13.1896 16.2166 13.9261 16.0317 14.6165C15.8469 15.3069 15.3079 15.8463 14.6177 16.0316Z" transform="translate(17.9006 17.9005)" fill="#00C2FF"/>
</g>
</g>
</svg>
