<svg width="56" height="56" viewBox="0 0 56 56" fill="none" xmlns="http://www.w3.org/2000/svg">
<g filter="url(#filter0_d)">
<path fill-rule="evenodd" clip-rule="evenodd" d="M0 24C0 10.7452 10.7452 0 24 0C37.2548 0 48 10.7452 48 24C48 37.2548 37.2548 48 24 48C10.7452 48 0 37.2548 0 24Z" transform="translate(4 2)" fill="white"/>
</g>
<path d="M1.7842 3.09455C2.8226 2.26046 4.0942 2.02324 5.4692 2.14377C7.3975 2.30924 9.0508 3.0649 10.6194 3.98698L10.9714 4.19742C11.0187 4.03959 11.0594 3.90472 11.0979 3.7689C11.4411 2.57324 12.0527 1.51342 13.2033 0.736722C14.7763 -0.323104 16.7178 -0.187278 18.1863 0.810374C16.2129 1.05524 14.8841 2.08924 13.6961 3.42837C14.2901 3.35185 14.7961 3.27533 15.3021 3.22272C16.3284 3.1175 17.3514 3.12898 18.3546 3.36333C20.2246 3.80142 21.2982 4.89759 21.7096 6.49116C21.8636 7.07942 21.9054 7.68872 21.9989 8.28942L21.8999 8.32481C21.7822 8.21672 21.6689 8.10863 21.5479 8.00246C20.2972 6.88333 18.8386 6.06837 17.0357 5.78907C15.9907 5.62646 14.9545 5.66185 13.9579 6.02437C13.8072 6.07794 13.6675 6.15542 13.5267 6.22142C16.0633 6.47011 17.941 7.63516 19.3809 9.34255C20.8802 11.1188 20.9462 13.0271 19.7846 14.9688C19.1939 15.9569 18.0796 17.1248 17.105 17.8116C17.0764 17.4768 17.061 17.1573 17.0192 16.8407C16.7475 14.7421 16.1535 12.7248 14.9215 10.8816C14.3429 10.015 13.618 9.25742 12.5675 8.78107C12.4531 8.72942 12.3343 8.68829 12.1715 8.6242C12.155 8.78203 12.1352 8.91307 12.1297 9.04507C12.0241 11.5158 11.7777 13.974 11.0924 16.3845C10.7404 17.6279 10.2982 18.8456 9.5414 19.9599C9.5161 19.9982 9.2598 20.2823 9.2598 20.2823C8.8891 20.6993 8.096 21.0351 7.491 21.0332L3.4595 21.0198C2.2451 21.015 1.969 20.4076 2.8292 19.6682C2.8292 19.6682 3.9072 18.7691 5.0314 17.714C7.4492 15.4442 8.8616 12.7525 9.3764 9.70603C9.4314 9.37698 9.4842 9.04603 9.5491 8.64907C7.4811 9.28324 5.8751 10.3689 4.5683 11.8018C3.2538 13.2442 2.4849 14.8703 2.4266 16.7307C2.3903 16.7231 2.3551 16.725 2.3386 16.7116C1.2881 15.7646 0.4653 14.7086 0.2178 13.3829C-0.0352 12.0151 0.3652 10.7687 1.276 9.65629C2.706 7.90777 4.6453 6.79629 7.0873 6.36107C7.3106 6.3209 7.5405 6.30368 7.7693 6.29029C7.9926 6.27881 8.2181 6.28837 8.5107 6.28837C8.1202 5.9249 7.6857 5.73168 7.2127 5.60924C6.0555 5.31272 4.906 5.42272 3.7675 5.68577C2.4079 6.00142 1.1605 6.51507 0 7.32907C0.0726 5.70298 0.3795 4.21846 1.7842 3.09168V3.09455Z" transform="translate(18 15.9544)" fill="#A0B0B9"/>
<defs>
<filter id="filter0_d" x="0" y="0" width="56" height="56" filterUnits="userSpaceOnUse" color-interpolation-filters="sRGB">
<feFlood flood-opacity="0" result="BackgroundImageFix"/>
<feColorMatrix in="SourceAlpha" type="matrix" values="0 0 0 0 0 0 0 0 0 0 0 0 0 0 0 0 0 0 255 0"/>
<feOffset dy="2"/>
<feGaussianBlur stdDeviation="2"/>
<feColorMatrix type="matrix" values="0 0 0 0 0.290196 0 0 0 0 0.290196 0 0 0 0 0.290196 0 0 0 0.1 0"/>
<feBlend mode="normal" in2="BackgroundImageFix" result="effect1_dropShadow"/>
<feBlend mode="normal" in="SourceGraphic" in2="effect1_dropShadow" result="shape"/>
</filter>
</defs>
</svg>
