<svg width="56" height="56" viewBox="0 0 56 56" fill="none" xmlns="http://www.w3.org/2000/svg">
<g filter="url(#filter0_d)">
<path fill-rule="evenodd" clip-rule="evenodd" d="M0 24C0 10.7452 10.7452 0 24 0C37.2548 0 48 10.7452 48 24C48 37.2548 37.2548 48 24 48C10.7452 48 0 37.2548 0 24Z" transform="translate(4 2)" fill="white"/>
</g>
<path fill-rule="evenodd" clip-rule="evenodd" d="M16.21 8.08209L11.8301 0.486328C11.6399 0.162109 11.3201 0 11 0C10.6799 0 10.3601 0.162109 10.1699 0.497925L5.79004 8.08209H1C0.449951 8.08209 0 8.60315 0 9.23999C0 9.34424 0.0100098 9.44843 0.0400391 9.55261L2.58008 20.2863C2.81006 21.259 3.58008 21.9769 4.5 21.9769H17.5C18.4199 21.9769 19.1899 21.259 19.4299 20.2863L21.97 9.55261L22 9.23999C22 8.60315 21.55 8.08209 21 8.08209H16.21ZM8 8.08209L11 2.98737L14 8.08209H8ZM9 15.0295C9 16.3032 9.8999 17.3453 11 17.3453C12.1001 17.3453 13 16.3032 13 15.0295C13 13.7558 12.1001 12.7137 11 12.7137C9.8999 12.7137 9 13.7558 9 15.0295Z" transform="translate(17 15)" fill="#A0B0B9"/>
<defs>
<filter id="filter0_d" x="0" y="0" width="56" height="56" filterUnits="userSpaceOnUse" color-interpolation-filters="sRGB">
<feFlood flood-opacity="0" result="BackgroundImageFix"/>
<feColorMatrix in="SourceAlpha" type="matrix" values="0 0 0 0 0 0 0 0 0 0 0 0 0 0 0 0 0 0 255 0"/>
<feOffset dy="2"/>
<feGaussianBlur stdDeviation="2"/>
<feColorMatrix type="matrix" values="0 0 0 0 0.290196 0 0 0 0 0.290196 0 0 0 0 0.290196 0 0 0 0.1 0"/>
<feBlend mode="normal" in2="BackgroundImageFix" result="effect1_dropShadow"/>
<feBlend mode="normal" in="SourceGraphic" in2="effect1_dropShadow" result="shape"/>
</filter>
</defs>
</svg>
