<svg width="56" height="56" viewBox="0 0 56 56" fill="none" xmlns="http://www.w3.org/2000/svg">
<g filter="url(#filter0_d)">
<path fill-rule="evenodd" clip-rule="evenodd" d="M0 24C0 10.7452 10.7452 0 24 0C37.2548 0 48 10.7452 48 24C48 37.2548 37.2548 48 24 48C10.7452 48 0 37.2548 0 24Z" transform="translate(4 2)" fill="white"/>
</g>
<path fill-rule="evenodd" clip-rule="evenodd" d="M22 1.22223V2.44446L12.2222 13.4445V19.5555H17.1111C17.7908 19.5555 18.3333 20.1031 18.3333 20.7778C18.3333 21.4573 17.7834 22 17.1086 22H4.89136C4.22412 22 3.66675 21.4525 3.66675 20.7778C3.66675 20.0982 4.21411 19.5555 4.88892 19.5555H9.77783V13.4445L0 2.44446V1.22223C0 0.542664 0.543945 0 1.21362 0H20.7864C21.4561 0 22 0.547546 22 1.22223ZM5.05762 3.97833C5.51831 4.4856 6.42529 4.88892 7.09497 4.88892H14.8916C15.5542 4.88892 16.4768 4.48187 16.9353 3.97833L18.3335 2.44446H3.66675L5.05762 3.97833Z" transform="translate(17 16)" fill="#A0B0B9"/>
<defs>
<filter id="filter0_d" x="0" y="0" width="56" height="56" filterUnits="userSpaceOnUse" color-interpolation-filters="sRGB">
<feFlood flood-opacity="0" result="BackgroundImageFix"/>
<feColorMatrix in="SourceAlpha" type="matrix" values="0 0 0 0 0 0 0 0 0 0 0 0 0 0 0 0 0 0 255 0"/>
<feOffset dy="2"/>
<feGaussianBlur stdDeviation="2"/>
<feColorMatrix type="matrix" values="0 0 0 0 0.290196 0 0 0 0 0.290196 0 0 0 0 0.290196 0 0 0 0.1 0"/>
<feBlend mode="normal" in2="BackgroundImageFix" result="effect1_dropShadow"/>
<feBlend mode="normal" in="SourceGraphic" in2="effect1_dropShadow" result="shape"/>
</filter>
</defs>
</svg>
